<svg width="319" height="151" viewBox="0 0 319 151" fill="none" xmlns="http://www.w3.org/2000/svg">
    <path
        d="M295.845 0H23.8464V73.3507C15.6243 75.6406 7.65667 78.5945 0 82.3398L10.581 150.702C58.4807 127.272 118.552 134.812 176.939 142.14C228.561 148.62 278.868 154.934 318.282 139.532L307.701 71.1703C303.85 72.6751 299.895 73.9727 295.845 75.083V0Z"
        fill="#11453B" />
    <mask id="mask0_1_2874" style="mask-type:alpha" maskUnits="userSpaceOnUse" x="0" y="0" width="319" height="151">
        <path
            d="M295.845 0H23.8464V73.3507C15.6243 75.6406 7.65667 78.5945 0 82.3398L10.581 150.702C58.4807 127.272 118.552 134.812 176.939 142.14C228.561 148.62 278.868 154.934 318.282 139.532L307.701 71.1703C303.85 72.6751 299.895 73.9727 295.845 75.083V0Z"
            fill="#11453B" />
    </mask>
    <g mask="url(#mask0_1_2874)">
        <path opacity="0.5" fill-rule="evenodd" clip-rule="evenodd"
            d="M296.26 88.8573C217.842 106.307 109.315 30.2438 23.8467 56.8105V118.436C109.315 91.8697 217.842 167.933 296.26 150.483V88.8573ZM296.26 -12.2182C217.842 5.23125 109.315 -70.8799 23.8467 -44.3131V17.3129C109.315 -9.2539 217.842 66.8572 296.26 49.4077V-12.2182ZM296.26 190.574C217.842 208.023 109.315 131.96 23.8467 158.527V220.153C109.315 193.586 217.842 269.649 296.26 252.2V190.574Z"
            fill="#175B4E" />
    </g>
    <g clip-path="url(#clip0_1_2874)">
        <path
            d="M132.749 77.18C132.701 79.6359 131.119 81.2656 128.521 81.2656C126.869 81.2656 125.853 80.4627 125.853 79.1871C125.853 77.676 127.034 76.8257 129.112 76.8257H132.749V77.18H132.749ZM138.794 80.4627C138.015 80.4627 137.637 80.2735 137.637 79.3289V72.9291C137.637 68.5837 134.709 66.3406 129.655 66.3406C124.861 66.3406 121.626 68.6546 121.272 72.1733H126.066C126.278 70.851 127.577 69.9774 129.513 69.9774C131.592 69.9774 132.749 71.0165 132.749 72.6458V73.5198H129.159C123.727 73.5198 120.847 75.6924 120.847 79.5412C120.847 82.9895 123.657 84.8548 127.577 84.8548C130.387 84.8548 132.229 83.698 133.481 81.6908C133.457 83.4147 134.26 84.6425 136.834 84.6425H139.361V80.4627H138.794H138.794Z"
            fill="white" />
        <path
            d="M141.297 70.733H149.94L140.896 81.2655V84.6427H157.049V80.4628H147.579L156.624 69.9301V66.5532H141.297V70.733Z"
            fill="white" />
        <path d="M158.513 84.6427H163.52V66.5532H158.513V84.6427Z" fill="white" />
        <path
            d="M161.016 64.6168C162.622 64.6168 163.897 63.4122 163.897 61.8302C163.897 60.2241 162.622 59.0195 161.016 59.0195C159.387 59.0195 158.135 60.2241 158.135 61.8302C158.135 63.4122 159.387 64.6168 161.016 64.6168Z"
            fill="white" />
        <path fill-rule="evenodd" clip-rule="evenodd"
            d="M174.832 80.8168C172.116 80.8168 170.415 78.6679 170.415 75.5507C170.415 72.504 172.116 70.3787 174.832 70.3787C177.524 70.3787 179.295 72.504 179.295 75.5507C179.295 78.6679 177.523 80.8168 174.832 80.8168ZM175.917 66.3407C173.344 66.3407 171.525 67.4978 170.345 69.0562V66.553H165.526V91.6798H170.486V82.3521C171.643 83.8394 173.438 84.8549 175.942 84.8549C180.806 84.8549 184.325 81.2656 184.325 75.6217C184.325 69.9299 180.806 66.317 175.918 66.3407H175.917Z"
            fill="white" />
        <path
            d="M196.912 77.18C196.865 79.6359 195.282 81.2656 192.685 81.2656C191.031 81.2656 190.016 80.4627 190.016 79.1871C190.016 77.676 191.197 76.8257 193.275 76.8257H196.912V77.18H196.912ZM202.958 80.4627C202.178 80.4627 201.8 80.2735 201.8 79.3289V72.9291C201.8 68.5837 198.872 66.3406 193.794 66.3406C189.024 66.3406 185.789 68.6546 185.435 72.1733H190.205C190.418 70.851 191.74 69.9774 193.653 69.9774C195.731 69.9774 196.912 71.0165 196.912 72.6458V73.5198H193.322C187.891 73.5198 185.01 75.6924 185.01 79.5412C185.01 82.9895 187.82 84.8548 191.74 84.8548C194.551 84.8548 196.369 83.698 197.644 81.6908C197.596 83.4147 198.424 84.6425 200.974 84.6425H203.524V80.4627H202.958Z"
            fill="white" />
        <path
            d="M209.688 84.737L209.239 85.9416C208.743 87.1693 208.318 87.5 207.043 87.5H204.304V91.6798H209.121C211.931 91.6798 212.852 90.1925 213.985 87.2166L222.015 66.5535H216.701L212.403 79.4236L208.011 66.5535H202.721L209.688 84.737H209.688Z"
            fill="white" />
        <path fill-rule="evenodd" clip-rule="evenodd"
            d="M119.241 79.7073C113.029 81.1006 104.434 75.0787 97.6797 77.1803V82.045C104.434 79.9432 113.029 85.9652 119.241 84.5719V79.7073Z"
            fill="white" />
        <path fill-rule="evenodd" clip-rule="evenodd"
            d="M119.241 71.6539C113.029 73.0471 104.434 67.0252 97.6797 69.1269V73.992C104.434 71.8899 113.029 77.9118 119.241 76.5421V71.6538V71.6539Z"
            fill="white" />
        <path fill-rule="evenodd" clip-rule="evenodd"
            d="M119.241 63.6722C113.029 65.0419 104.434 59.0198 97.6797 61.1218V66.0099C104.434 63.9083 113.029 69.9303 119.241 68.537V63.6723V63.6722Z"
            fill="white" />
    </g>
    <defs>
        <clipPath id="clip0_1_2874">
            <rect width="124.335" height="32.6604" fill="white" transform="translate(97.6797 59.0195)" />
        </clipPath>
    </defs>
</svg>