<svg width="770" height="154" viewBox="0 0 770 154" fill="none" xmlns="http://www.w3.org/2000/svg">
<g clip-path="url(#clip0_27_2340)">
<rect width="770" height="154" rx="24" fill="#11453B"/>
<g opacity="0.1">
<path d="M122.747 162.834V280.376C212.676 228.898 266.883 235.499 366.96 280.145C468.127 328.629 521.681 329.158 611.174 279.915V162.834C519.251 212.225 466.261 211.923 369.267 162.834C266.511 116.996 211.998 112.797 122.747 162.834Z" fill="#D9EBCD" fill-opacity="0.7"/>
<path d="M611.173 162.834V280.376C701.102 228.898 755.309 235.499 855.386 280.145C956.553 328.629 1010.11 329.158 1099.6 279.915V162.834C1007.68 212.225 954.687 211.923 857.693 162.834C754.937 116.996 700.424 112.797 611.173 162.834Z" fill="#D9EBCD" fill-opacity="0.7"/>
<path d="M360.433 -15.1463V102.395C270.504 50.9173 216.297 57.5183 116.22 102.165C15.0536 150.648 -38.5009 151.178 -127.993 101.935V-15.1463C-36.0702 34.2447 16.9191 33.9425 113.914 -15.1463C216.669 -60.9841 271.182 -65.1836 360.433 -15.1463Z" fill="#D9EBCD" fill-opacity="0.7"/>
<path d="M848.859 -15.1463V102.395C758.93 50.9173 704.723 57.5183 604.646 102.165C503.479 150.648 449.925 151.178 360.432 101.935V-15.1463C452.355 34.2447 505.345 33.9425 602.339 -15.1463C705.095 -60.9841 759.608 -65.1836 848.859 -15.1463Z" fill="#D9EBCD" fill-opacity="0.7"/>
</g>
</g>
<defs>
<clipPath id="clip0_27_2340">
<rect width="770" height="154" rx="24" fill="white"/>
</clipPath>
</defs>
</svg>
