<!-- <svg xmlns="http://www.w3.org/2000/svg" fill="none" viewBox="0 0 283 64">
    <path fill="black"
        d="M141 16c-11 0-19 7-19 18s9 18 20 18c7 0 13-3 16-7l-7-5c-2 3-6 4-9 4-5 0-9-3-10-7h28v-3c0-11-8-18-19-18zm-9 15c1-4 4-7 9-7s8 3 9 7h-18zm117-15c-11 0-19 7-19 18s9 18 20 18c6 0 12-3 16-7l-8-5c-2 3-5 4-8 4-5 0-9-3-11-7h28l1-3c0-11-8-18-19-18zm-10 15c2-4 5-7 10-7s8 3 9 7h-19zm-39 3c0 6 4 10 10 10 4 0 7-2 9-5l8 5c-3 5-9 8-17 8-11 0-19-7-19-18s8-18 19-18c8 0 14 3 17 8l-8 5c-2-3-5-5-9-5-6 0-10 4-10 10zm83-29v46h-9V5h9zM37 0l37 64H0L37 0zm92 5-27 48L74 5h10l18 30 17-30h10zm59 12v10l-3-1c-6 0-10 4-10 10v15h-9V17h9v9c0-5 6-9 13-9z" />
</svg> -->

<svg width="22" height="25" viewBox="0 0 22 25" fill="none" xmlns="http://www.w3.org/2000/svg">
    <path fill-rule="evenodd" clip-rule="evenodd"
        d="M21.1559 19.2694C15.0614 20.6345 6.62708 14.7344 0 16.7935V21.5598C6.62708 19.5005 15.0614 25.4008 21.1559 24.0356V19.2694Z"
        fill="#11453B" />
    <path fill-rule="evenodd" clip-rule="evenodd"
        d="M21.1559 11.3791C15.0614 12.7442 6.62708 6.84401 0 8.90318V13.6699C6.62708 11.6103 15.0614 17.5104 21.1559 16.1685V11.3791Z"
        fill="#11453B" />
    <path fill-rule="evenodd" clip-rule="evenodd"
        d="M21.1559 3.55857C15.0614 4.90054 6.62708 -0.999724 0 1.05968V5.84902C6.62708 3.78984 15.0614 9.6901 21.1559 8.32497V3.55857Z"
        fill="#11453B" />
</svg>